<svg width="3434" height="1932" viewBox="0 0 3434 1932" fill="none" xmlns="http://www.w3.org/2000/svg">
<path d="M3328.45 807.727C3328.45 828.022 3312.02 844.454 3291.73 844.454C3271.43 844.454 3255 828.022 3255 807.727C3255 787.433 3271.43 771 3291.73 771C3311.95 770.93 3328.45 787.433 3328.45 807.727Z" fill="#D1899A"/>
<path d="M2791.09 1648.18C2806.6 1648.18 2819.18 1635.6 2819.18 1620.09C2819.18 1604.58 2806.6 1592 2791.09 1592C2775.58 1592 2763 1604.58 2763 1620.09C2763 1635.6 2775.58 1648.18 2791.09 1648.18Z" fill="#D1899A"/>
<path d="M2724.09 158.179C2739.6 158.179 2752.18 145.603 2752.18 130.089C2752.18 114.576 2739.6 102 2724.09 102C2708.58 102 2696 114.576 2696 130.089C2696 145.603 2708.58 158.179 2724.09 158.179Z" fill="#D1899A"/>
<path d="M666.089 126.179C681.603 126.179 694.179 113.603 694.179 98.0895C694.179 82.5761 681.603 70 666.089 70C650.576 70 638 82.5761 638 98.0895C638 113.603 650.576 126.179 666.089 126.179Z" fill="#D1899A"/>
<path d="M135.932 455.966C135.932 470.854 123.853 482.932 108.966 482.932C94.0785 482.932 82 470.854 82 455.966C82 441.079 94.0785 429 108.966 429C123.853 428.93 135.932 441.079 135.932 455.966Z" fill="#D1899A"/>
<path d="M475.932 1564.97C475.932 1579.85 463.853 1591.93 448.966 1591.93C434.079 1591.93 422 1579.85 422 1564.97C422 1550.08 434.079 1538 448.966 1538C463.853 1537.93 475.932 1550.08 475.932 1564.97Z" fill="#D1899A"/>
<path d="M915.932 521.966C915.932 536.854 903.853 548.932 888.966 548.932C874.079 548.932 862 536.854 862 521.966C862 507.079 874.079 495 888.966 495C903.853 494.93 915.932 507.079 915.932 521.966Z" fill="#D1899A"/>
<path d="M3433.35 1537.67C3433.35 1557.41 3417.34 1573.35 3397.67 1573.35C3377.94 1573.35 3362 1557.34 3362 1537.67C3362 1517.94 3378.01 1502 3397.67 1502C3417.34 1502 3433.35 1517.94 3433.35 1537.67Z" fill="#98C0C1"/>
<path d="M3122.57 513.283C3122.57 529.435 3109.43 542.566 3093.28 542.566C3077.13 542.566 3064 529.435 3064 513.283C3064 497.132 3077.13 484 3093.28 484C3109.5 484 3122.57 497.132 3122.57 513.283Z" fill="#98C0C1"/>
<path d="M2458.27 261.137C2458.27 272.794 2448.79 282.275 2437.14 282.275C2425.48 282.275 2416 272.794 2416 261.137C2416 249.48 2425.48 240 2437.14 240C2448.86 240 2458.27 249.48 2458.27 261.137Z" fill="#98C0C1"/>
<path d="M3144.27 1082.14C3144.27 1093.79 3134.79 1103.27 3123.14 1103.27C3111.48 1103.27 3102 1093.79 3102 1082.14C3102 1070.48 3111.48 1061 3123.14 1061C3134.86 1061 3144.27 1070.48 3144.27 1082.14Z" fill="#98C0C1"/>
<path d="M150 1483C150 1496.28 139.24 1507 126 1507C112.722 1507 102 1496.24 102 1483C102 1469.72 112.76 1459 126 1459C139.278 1459 150 1469.72 150 1483Z" fill="#98C0C1"/>
<path d="M487.293 638.229L423.642 630.477L381.109 678.466L368.851 615.563L310 589.944L366.119 558.862L372.248 495L419.211 538.707L481.829 524.827L454.729 583.005L487.293 638.229Z" fill="#FDCA0E"/>
<path d="M2958 1830.42L3001.34 1819.71L3017.07 1778L3040.63 1815.87L3085.15 1817.94L3056.43 1852.05L3068.25 1895.02L3026.89 1878.26L2989.68 1902.77L2992.85 1858.25L2958 1830.42Z" fill="#FDCA0E"/>
<path d="M3030 132.775L3058.95 111.733L3057.99 76L3086.93 97.0413L3120.6 85.081L3109.6 119.116L3131.31 147.467H3095.57L3075.34 176.925L3064.26 142.889L3030 132.775Z" fill="#FDCA0E"/>
<path d="M654.806 1842L613 1846.19L621.562 1931.62L663.368 1927.43L654.806 1842Z" fill="#6CD8D8"/>
<path d="M2206.25 5.83405e-06L2166 12.0649L2190.66 94.3136L2230.91 82.2486L2206.25 5.83405e-06Z" fill="#6CD8D8"/>
<path d="M377.4 229L332 272.865L353.449 295.057L398.849 251.192L377.4 229Z" fill="#6CD8D8"/>
<path d="M469.4 1037L424 1080.86L445.449 1103.06L490.849 1059.19L469.4 1037Z" fill="#6CD8D8"/>
<path d="M104.4 1785L59 1828.86L80.4486 1851.06L125.849 1807.19L104.4 1785Z" fill="#6CD8D8"/>
<path d="M1050.43 158L1012 161.85L1019.87 240.378L1058.3 236.529L1050.43 158Z" fill="#ED3A69"/>
<path d="M2870.43 868L2832 871.85L2839.87 950.378L2878.3 946.529L2870.43 868Z" fill="#ED3A69"/>
<path d="M2494.29 527.168L2500.05 488.981L2422.01 477.211L2416.25 515.398L2494.29 527.168Z" fill="#ED3A69"/>
<path d="M738.771 1365L682 1419.84L708.836 1447.61L765.607 1392.77L738.771 1365Z" fill="#ED3A69"/>
<path d="M3078.76 1356L3022 1410.84L3048.84 1438.61L3105.6 1383.77L3078.76 1356Z" fill="#ED3A69"/>
<path d="M2765.82 1275L2713 1326L2737.97 1351.85L2790.78 1300.85L2765.82 1275Z" fill="#FF99B1"/>
<path d="M3325.21 314.166L3281.41 255.239L3252.57 276.681L3296.37 335.608L3325.21 314.166Z" fill="#FF99B1"/>
<path d="M16.2624 955L0 987.042L65.4754 1020.26L81.7377 988.221L16.2624 955Z" fill="#FF99B1"/>
<path d="M142.259 29.0002L126 61.0454L191.483 94.2588L207.742 62.2135L142.259 29.0002Z" fill="#FF99B1"/>
</svg>
