<svg width="3647" height="2150" viewBox="0 0 3647 2150" fill="none" xmlns="http://www.w3.org/2000/svg">
<mask id="mask0_711_1674" style="mask-type:alpha" maskUnits="userSpaceOnUse" x="0" y="0" width="3647" height="2150">
<rect width="3647" height="2150" rx="110" fill="#EE5600"/>
</mask>
<g mask="url(#mask0_711_1674)">
<path d="M2827.87 3518.51C2827.87 3518.51 2992.98 3102.68 2813.14 2692.86C2813.14 2692.86 2921.65 2510.16 3140.11 2465.7C3140.11 2465.7 2907.65 2130.37 2596.12 2070.58L2797.31 1987.75C2797.31 1987.75 2245.91 1651.38 1452.73 1963.76L1609.37 1771.72C1120.96 1890.6 755.192 2261.97 682.952 2708.76C614.125 3134.23 837.853 3464.94 894.51 3543.9C893.785 3513.12 889.455 2933.45 1330.64 2666.6C1540.81 2539.44 1756.38 2541.27 1839.64 2546.51C2174.31 2567.48 2387.16 2773 2477.95 2860.71C2731.73 3105.7 2804.77 3396.76 2827.87 3518.51Z" fill="#CE4A00" fill-opacity="0.65"/>
<path d="M-979.294 1765.83C-979.294 1765.83 -522.767 1871.22 -126.831 1620.45C-126.831 1620.45 79.4214 1704 159.875 1923.16C159.875 1923.16 470.4 1629.65 483.196 1297.71L600.66 1492.93C600.66 1492.93 861.994 869.069 413.593 97.1453L637.091 229.037C437.039 -257.862 -5.07884 -578.006 -479.011 -582.381C-930.34 -586.582 -1237.46 -302.841 -1310.27 -231.74C-1278.53 -237.341 -679.09 -333.18 -333.289 81.5159C-168.518 279.054 -136.438 502.516 -128.739 589.548C-97.709 939.323 -276.936 1192.07 -353.427 1299.9C-567.067 1601.24 -856.878 1722.73 -979.294 1765.83Z" fill="#CE4A00" fill-opacity="0.65"/>
<path d="M3997.3 811.638C3997.3 811.638 3259.64 704.3 3059.63 64.2054C3059.63 64.2054 3147.68 -583.358 3668.96 -825.732L3974.11 -356.749C3974.04 -356.72 3167.01 274.98 3997.3 811.638Z" fill="#CE4A00" fill-opacity="0.65"/>
<path d="M3036.03 241.854C3036.03 241.854 3003.21 705.597 3310.13 1054.96C3310.13 1054.96 3260.08 1270.02 3057.69 1382.72C3057.69 1382.72 3393.32 1641.77 3720.65 1603.06L3547.44 1748.34C3547.44 1748.34 4199.27 1908.17 4886.66 1349.49L4791.89 1588.92C5238.24 1317.66 5483.78 834.889 5414.9 369.683C5349.34 -73.3419 5023.81 -330.562 4942.88 -390.957C4953.27 -360.704 5139.75 212.045 4786.67 615.011C4618.49 807.011 4404.41 872.954 4320.3 893.936C3982.25 978.351 3706.84 841.7 3589.35 783.373C3261 620.494 3097.18 355.187 3036.03 241.854Z" fill="#CE4A00" fill-opacity="0.65"/>
</g>
</svg>
