<svg width="118" height="116" viewBox="0 0 118 116" fill="none" xmlns="http://www.w3.org/2000/svg">
<path d="M115.53 106.46L93.69 84.6204C100.78 75.7204 105.03 64.4704 105.03 52.2304C105.03 23.5104 81.67 0.150391 52.95 0.150391C24.23 0.150391 0.859985 23.5104 0.859985 52.2304C0.859985 80.9504 24.22 104.31 52.94 104.31C65.47 104.31 76.98 99.8604 85.97 92.4604L107.74 114.23C108.81 115.3 110.22 115.84 111.63 115.84C113.04 115.84 114.45 115.3 115.52 114.23C117.68 112.09 117.68 108.61 115.53 106.46ZM11.86 52.2304C11.86 29.5804 30.29 11.1504 52.94 11.1504C75.59 11.1504 94.02 29.5804 94.02 52.2304C94.02 74.8804 75.6 93.3104 52.94 93.3104C30.28 93.3104 11.86 74.8804 11.86 52.2304Z" fill="#8A8A8A"/>
</svg>
